# xmcd
#
# Track frame offsets: 
#        150
#        12025
#        28515
#        51135
#        68038
#        95760
#        98860
#        109955
#        123710
#        135540
#        148710
#        163560
#        180488
#        195735
#        201245
#        218165
#        235745
#        251128
#        263608
#        286123
#        299130
#        314715
#        339260
#
# Disc length: 4795 seconds
#
# Revision: 1
# Processed by: cddbd v1.5.2PL0 Copyright (c) Steve Scherf et al.
# Submitted via: ExactAudioCopy v0.99pb5
#
DISCID=6012b917
DTITLE=Olli Banjo - Erste Hilfe
DYEAR=2003
DGENRE=Rap D
TTITLE0=Olli and Roe treffen Rap
TTITLE1=Neu and Fresh
TTITLE2=Deutschland
TTITLE3=Wie ein Vogel
TTITLE4=ABC (feat. Curse)
TTITLE5=Thomas
TTITLE6=Amok
TTITLE7=Antithese
TTITLE8=Gefährliches Halbwissen (feat. Illuminati 23)
TTITLE9=Pornostar
TTITLE10=Scheisse and Pervers
TTITLE11=AIDS
TTITLE12=Sexist
TTITLE13=Der Hit (La La La)
TTITLE14=Dein Arsch
TTITLE15=Toastbrot
TTITLE16=Urlaub (feat. Schivv)
TTITLE17=Gut
TTITLE18=Schrei
TTITLE19=Wenn ich gross bin
TTITLE20=Jesus
TTITLE21=Kinderzimmer
TTITLE22=Kopiergeschützt
EXTD=
EXTT0=
EXTT1=
EXTT2=
EXTT3=
EXTT4=
EXTT5=
EXTT6=
EXTT7=
EXTT8=
EXTT9=
EXTT10=
EXTT11=
EXTT12=
EXTT13=
EXTT14=
EXTT15=
EXTT16=
EXTT17=
EXTT18=
EXTT19=
EXTT20=
EXTT21=
EXTT22=
PLAYORDER=
